<?xml version="1.0" encoding="utf-8"?>
<!-- Generator: Adobe Illustrator 19.0.0, SVG Export Plug-In . SVG Version: 6.00 Build 0)  -->
<svg version="1.1" id="Layer_1" xmlns="http://www.w3.org/2000/svg" xmlns:xlink="http://www.w3.org/1999/xlink" x="0px" y="0px"
	 viewBox="54 292.9 719.2 209.1" style="enable-background:new 54 292.9 719.2 209.1;" xml:space="preserve">
<style type="text/css">
	.st0{fill:#6D1B1B;}
	.st1{fill:#D69A5F;}
	.st2{fill:#600C0C;}
	.st3{clip-path:url(#SVGID_3_);fill:url(#SVGID_4_);}
	.st4{clip-path:url(#SVGID_8_);fill:#600C0C;}
	.st5{fill-rule:evenodd;clip-rule:evenodd;fill:#600C0C;}
</style>
<g>
	<g>
		<path class="st0" d="M313.7,452.9c-1.3-0.5-2-0.7-3.4-0.7c-1.4,0-3.1,0.5-3.1,2.4c0,3.4,7.7,2.6,7.7,8.5c0,3.8-3,5.3-6.5,5.3
			c-1.3,0-2.5-0.4-3.7-0.7l0.3-2.4c0.9,0.4,2.4,0.9,3.7,0.9c1.5,0,3.5-0.8,3.5-2.9c0-4-7.7-2.9-7.7-8.5c0-3.2,2.5-4.9,5.7-4.9
			c1.2,0,2.6,0.2,3.8,0.6L313.7,452.9z"/>
		<path class="st0" d="M332.6,450.2h2.7l7.6,17.9h-2.8l-1.8-4.5h-8.8l-1.8,4.5H325L332.6,450.2z M333.9,452.6l-3.6,8.9h7.1
			L333.9,452.6z"/>
		<path class="st0" d="M368,460.7c0,5-2.5,7.7-7,7.7c-4.4,0-7-2.7-7-7.7v-10.5h2.6v10.2c0,3.4,1.1,5.8,4.4,5.8
			c3.3,0,4.4-2.4,4.4-5.8v-10.2h2.6V460.7z M361.6,445.2h2.8l-3.4,3.7h-1.7L361.6,445.2z"/>
		<path class="st0" d="M381,450.2h5.3c5.3,0,9.5,3.3,9.5,8.8c0,6-3.6,9.1-9.5,9.1H381V450.2z M383.5,465.9h2.7
			c4.4,0,6.9-2.1,6.9-6.8c0-4.2-2.8-6.6-6.5-6.6h-3V465.9z"/>
		<path class="st0" d="M408.3,450.2h10v2.3h-7.5v5.2h6.8v2.3h-6.8v5.9h7.5v2.3h-10V450.2z"/>
		<path class="st0" d="M446.8,450.2h10v2.3h-7.5v5.2h6.8v2.3h-6.8v5.9h7.5v2.3h-10V450.2z"/>
		<path class="st0" d="M485,450.2h4.9c3.7,0,6.3,1.2,6.3,4.5c0,2.5-1.4,3.7-3.7,4.3v0.1c2.4,0.2,4.2,1.8,4.2,4.3
			c0,3.8-3.2,4.8-6.8,4.8H485V450.2z M487.6,457.9h1.4c2.5,0,4.6-0.2,4.6-2.9c0-2.1-1.8-2.7-3.3-2.7h-2.7V457.9z M487.6,466h1.9
			c2.3,0,4.4-0.5,4.4-2.9c0-2.8-2.4-3.2-4.6-3.2h-1.7V466z"/>
		<path class="st0" d="M509.5,450.2h10v2.3h-7.5v5.2h6.8v2.3h-6.8v5.9h7.5v2.3h-10V450.2z"/>
		<path class="st0" d="M532.2,450.2h4.2l5.6,14.9l5.5-14.9h4.2v17.9h-2.6v-15.5h-0.1l-5.9,15.5h-2.5l-5.9-15.5h-0.1v15.5h-2.6V450.2
			z"/>
		<path class="st0" d="M580.8,450.2h10v2.3h-7.5v5.2h6.8v2.3h-6.8v5.9h7.5v2.3h-10V450.2z"/>
		<path class="st0" d="M611.6,452.9c-1.3-0.5-2-0.7-3.4-0.7c-1.4,0-3.1,0.5-3.1,2.4c0,3.4,7.7,2.6,7.7,8.5c0,3.8-2.9,5.3-6.5,5.3
			c-1.3,0-2.5-0.4-3.7-0.7l0.3-2.4c0.9,0.4,2.4,0.9,3.7,0.9c1.5,0,3.5-0.8,3.5-2.9c0-4-7.7-2.9-7.7-8.5c0-3.2,2.5-4.9,5.8-4.9
			c1.2,0,2.6,0.2,3.8,0.6L611.6,452.9z"/>
		<path class="st0" d="M628.4,452.5h-5.6v-2.3h13.7v2.3H631v15.7h-2.6V452.5z"/>
		<path class="st0" d="M651.9,450.2h2.7l7.6,17.9h-2.8l-1.8-4.5h-8.8l-1.8,4.5h-2.7L651.9,450.2z M653.2,452.6l-3.6,8.9h7.1
			L653.2,452.6z"/>
		<path class="st0" d="M673.2,450.2h4.4c3.5,0,7,0.6,7,4.9c0,2.2-1.6,3.7-3.7,4.1v0.1c0.8,0.3,1.2,0.7,1.7,1.8l3.4,7.1H683l-2.7-6.2
			c-0.8-1.7-1.6-1.7-3-1.7h-1.5v8h-2.6V450.2z M675.7,457.9h2.2c2.4,0,3.9-1.1,3.9-2.8c0-1.6-1.2-2.6-3.6-2.6h-2.5V457.9z"/>
	</g>
</g>
<g>
	<g>
		<path class="st1" d="M277.2,432c-4.3,1-9,1.9-13.5,1.9c-19.2,0-32.6-9.6-32.6-29.7c0-20.4,12.4-31.8,32.6-31.8
			c3.9,0,9.1,0.8,13.5,2.5l-0.9,10c-4.5-2.6-8.6-3.2-12.9-3.2c-12.3,0-19.9,9.4-19.9,21.5c0,12.1,7.5,21.2,20.2,21.2
			c4.7,0,10.2-1,13-2.5L277.2,432z"/>
		<path class="st1" d="M285.2,369h11.4v63.9h-11.4V369z"/>
		<path class="st1" d="M315.4,370.6H327l-11.7,12.4h-7.1L315.4,370.6z M308.9,432.9V389h11.4v43.9H308.9z"/>
		<path class="st1" d="M332.3,389h10.8v6h0.2c3.6-5,8.4-7,14.4-7c10.4,0,14.9,7.3,14.9,17.2v27.7h-11.4v-23.4
			c0-5.4-0.1-12.6-7.4-12.6c-8.3,0-10,8.9-10,14.6v21.5h-11.4V389z"/>
		<path class="st1" d="M384.6,370.1H396V381h-11.4V370.1z M384.6,389H396v43.9h-11.4V389z"/>
		<path class="st1" d="M436.5,398.5c-2-0.9-4.3-1.6-7.7-1.6c-7.1,0-11.6,5.6-11.6,13.9c0,8.1,3.8,14.3,11.8,14.3
			c3.2,0,6.8-1.2,8.8-2l0.5,9.5c-3.3,1-6.7,1.4-11.4,1.4c-14.4,0-21.6-9.8-21.6-23.2c0-12.7,7.5-22.7,21.2-22.7
			c4.6,0,7.9,0.5,11.1,1.4L436.5,398.5z"/>
		<path class="st1" d="M447.8,391.3c4.4-2,10.4-3.3,15.2-3.3c13.4,0,18.9,5.5,18.9,18.5v5.6c0,4.4,0.1,7.7,0.2,11
			c0.1,3.3,0.3,6.4,0.5,9.8h-10c-0.4-2.3-0.4-5.2-0.5-6.6h-0.2c-2.6,4.9-8.3,7.6-13.5,7.6c-7.7,0-15.3-4.7-15.3-13
			c0-6.6,3.2-10.4,7.5-12.5c4.3-2.1,10-2.6,14.7-2.6h6.3c0-7.1-3.2-9.5-9.9-9.5c-4.9,0-9.7,1.9-13.5,4.8L447.8,391.3z M461.1,425.6
			c3.5,0,6.2-1.5,8-3.9c1.9-2.5,2.4-5.6,2.4-9h-4.9c-5.1,0-12.7,0.9-12.7,7.6C453.9,424,457.1,425.6,461.1,425.6z"/>
	</g>
	<g>
		<g>
			<path class="st2" d="M492.5,362.4h13.9v69.3h-13.9V362.4z"/>
			<path class="st2" d="M521.3,362.4h19c21.3,0,40,7.2,40,34.7c0,27.5-18.8,34.7-40,34.7h-19V362.4z M535.2,420.8h7.7
				c11.6,0,22.8-8.6,22.8-23.7c0-15.1-11.2-23.7-22.8-23.7h-7.7V420.8z"/>
			<path class="st2" d="M593,362.4h40.9v10.9h-27v17.1h24.7v10.9h-24.7v19.5h27.2v10.9H593V362.4z"/>
			<path class="st2" d="M668.1,362.4h15.7l27.2,69.3h-15.4l-6-15.9h-28.1l-6.1,15.9h-14.4L668.1,362.4z M675.7,376.3h-0.2l-10,28.6
				h20.3L675.7,376.3z"/>
			<path class="st2" d="M719.9,362.4h13.9v58.4h26.9v10.9h-40.8V362.4z"/>
		</g>
	</g>
</g>
<g>
	<g>
		<defs>
			<path id="SVGID_1_" d="M144.7,386.1c2.6,0.9,5.1,1.9,7.6,3.2c25,12.5,37.5,41,29.9,67.9c9.9-18.3,9.1-40.6-2.2-58.1
				c-7.8-12-19.6-20.5-33-24.1C146.2,378.7,145.4,382.5,144.7,386.1 M80.8,422.7h27.6c-0.5,3.3-0.9,6.7-1,9.9
				c-0.5,11.3,3.7,23.7,17.2,23.7c5.2,0,10.1-1.5,13.2-5.9c2.8-4,3-9.2,2.8-13.9c-0.2-4.7-0.8-9.1-0.8-13.8h33.3
				c3.1,5.3,4.3,11.6,3.2,17.8c-3.7,17-10.7,17.9-18.8,32.7c-3.5-3.4-10.1-4.4-14.7-4.8c-4.6-0.5-10.5,0.4-15.2,0.9
				c-6.2,0.6-12.4,1.1-18.6,0.8c-5.3-0.3-10.8-1.2-15.6-3.6c-4-2-7.1-4.8-9.5-8.6c-2.8-4.6-4.8-9.5-6.1-14.6
				C75.8,436.1,77.1,428.7,80.8,422.7z M80.2,406.2c11.8-15.6,30.3-23.8,48.8-23c1.2-3.4,2.6-6.8,4-10.3c-1.7,0-3.4,0-5.1,0.1
				C107.2,374.5,88.9,387.3,80.2,406.2z"/>
		</defs>
		<linearGradient id="SVGID_2_" gradientUnits="userSpaceOnUse" x1="76.7984" y1="423.0526" x2="189.1267" y2="423.0526">
			<stop  offset="0" style="stop-color:#D79B5F"/>
			<stop  offset="0.99" style="stop-color:#C4E4F8"/>
		</linearGradient>
		<use xlink:href="#SVGID_1_"  style="overflow:visible;fill-rule:evenodd;clip-rule:evenodd;fill:url(#SVGID_2_);"/>
		<clipPath id="SVGID_3_">
			<use xlink:href="#SVGID_1_"  style="overflow:visible;"/>
		</clipPath>
		<linearGradient id="SVGID_4_" gradientUnits="userSpaceOnUse" x1="75.8411" y1="423.0428" x2="192.1635" y2="423.0428">
			<stop  offset="0" style="stop-color:#D69B5F"/>
			<stop  offset="0.99" style="stop-color:#F2E1CA"/>
		</linearGradient>
		<rect x="75.8" y="372.9" class="st3" width="116.3" height="100.3"/>
	</g>
	<g>
		<g>
			<defs>
				<path id="SVGID_5_" d="M172.3,471.6c0.4-2.2-1.5-4.7-3.9-3.6c-3.7,1.6-6.6,7.8-9.7,14.1c2-0.7,4-1.4,6-2.1l1.2-0.4
					c1.7-2.3,3.4-4.6,5.3-6.7C171.5,472.5,171.9,472.1,172.3,471.6 M181.2,474.7c0.6-0.9,1-1.4,1-1.4c0.8-2.1-0.5-4.9-3.2-4.3
					c-3.4,0.7-6.8,4.9-10.4,9.6c3.1-1.1,6.2-2.2,9.4-3C178.9,475.3,180,475,181.2,474.7z M95.7,376.2c-29.1,17-45.6,52.9-30.4,84.6
					c0,0,9.7,25.4,37.8,34.7c19.7,6.5,37.4,3.8,48.5-0.2c0.5-0.2,36.3-13.8,36.5-14c1.8-1.4,2-4.5-0.6-5.3
					c-6.8-2.1-32.4,10.8-42.2,11.3c-9,0.5-12.8-6.3-8.2-7.4c3.6-0.9,6.2,0.6,9.2,0.7c1.5,0.1,10.5-0.3,7.5-3.6
					c-1.1-1.2-3.9-2.7-11.6-3.5c-11.9-1.2-48.5,10.3-62.8-13.1C62.5,433.2,71.2,395.9,95.7,376.2z"/>
			</defs>
			<clipPath id="SVGID_6_">
				<use xlink:href="#SVGID_5_"  style="overflow:visible;"/>
			</clipPath>
		</g>
		<g>
			<defs>
				<path id="SVGID_7_" d="M172.3,471.6c0.4-2.2-1.5-4.7-3.9-3.6c-3.7,1.6-6.6,7.8-9.7,14.1c2-0.7,4-1.4,6-2.1l1.2-0.4
					c1.7-2.3,3.4-4.6,5.3-6.7C171.5,472.5,171.9,472.1,172.3,471.6 M181.2,474.7c0.6-0.9,1-1.4,1-1.4c0.8-2.1-0.5-4.9-3.2-4.3
					c-3.4,0.7-6.8,4.9-10.4,9.6c3.1-1.1,6.2-2.2,9.4-3C178.9,475.3,180,475,181.2,474.7z M95.7,376.2c-29.1,17-45.6,52.9-30.4,84.6
					c0,0,9.7,25.4,37.8,34.7c19.7,6.5,37.4,3.8,48.5-0.2c0.5-0.2,36.3-13.8,36.5-14c1.8-1.4,2-4.5-0.6-5.3
					c-6.8-2.1-32.4,10.8-42.2,11.3c-9,0.5-12.8-6.3-8.2-7.4c3.6-0.9,6.2,0.6,9.2,0.7c1.5,0.1,10.5-0.3,7.5-3.6
					c-1.1-1.2-3.9-2.7-11.6-3.5c-11.9-1.2-48.5,10.3-62.8-13.1C62.5,433.2,71.2,395.9,95.7,376.2z"/>
			</defs>
			<use xlink:href="#SVGID_7_"  style="overflow:visible;fill-rule:evenodd;clip-rule:evenodd;fill:#600C0C;"/>
			<clipPath id="SVGID_8_">
				<use xlink:href="#SVGID_7_"  style="overflow:visible;"/>
			</clipPath>
			<rect x="50.1" y="376.2" class="st4" width="139.9" height="125.8"/>
		</g>
		<g>
			<defs>
				<path id="SVGID_9_" d="M172.3,471.6c0.4-2.2-1.5-4.7-3.9-3.6c-3.7,1.6-6.6,7.8-9.7,14.1c2-0.7,4-1.4,6-2.1l1.2-0.4
					c1.7-2.3,3.4-4.6,5.3-6.7C171.5,472.5,171.9,472.1,172.3,471.6 M181.2,474.7c0.6-0.9,1-1.4,1-1.4c0.8-2.1-0.5-4.9-3.2-4.3
					c-3.4,0.7-6.8,4.9-10.4,9.6c3.1-1.1,6.2-2.2,9.4-3C178.9,475.3,180,475,181.2,474.7z M95.7,376.2c-29.1,17-45.6,52.9-30.4,84.6
					c0,0,9.7,25.4,37.8,34.7c19.7,6.5,37.4,3.8,48.5-0.2c0.5-0.2,36.3-13.8,36.5-14c1.8-1.4,2-4.5-0.6-5.3
					c-6.8-2.1-32.4,10.8-42.2,11.3c-9,0.5-12.8-6.3-8.2-7.4c3.6-0.9,6.2,0.6,9.2,0.7c1.5,0.1,10.5-0.3,7.5-3.6
					c-1.1-1.2-3.9-2.7-11.6-3.5c-11.9-1.2-48.5,10.3-62.8-13.1C62.5,433.2,71.2,395.9,95.7,376.2z"/>
			</defs>
			<clipPath id="SVGID_10_">
				<use xlink:href="#SVGID_9_"  style="overflow:visible;"/>
			</clipPath>
		</g>
	</g>
	<path class="st5" d="M124.5,452.3c-11,0-13.5-10.7-13.1-19.5c1-24.4,19.9-81.1,57.9-137.8c-23.3,46.5-35.7,106.1-33.5,134.4
		C136.5,438.5,139.3,452.3,124.5,452.3"/>
</g>
</svg>
